<?xml version="1.0" standalone="no"?>
<!DOCTYPE svg PUBLIC "-//W3C//DTD SVG 20010904//EN"
 "http://www.w3.org/TR/2001/REC-SVG-20010904/DTD/svg10.dtd">
<svg version="1.0" xmlns="http://www.w3.org/2000/svg"
 width="360.000000pt" height="360.000000pt" viewBox="0 0 360.000000 360.000000"
 preserveAspectRatio="xMidYMid meet">
<metadata>
Created by potrace 1.14, written by Peter Selinger 2001-2017
</metadata>
<g transform="translate(0.000000,360.000000) scale(0.100000,-0.100000)"
fill="#000000" stroke="none">
<path d="M0 2136 l0 -1464 30 -64 c46 -99 54 -159 53 -395 l-2 -213 1758 0
1758 0 2 272 c1 271 1 273 -18 248 l-20 -25 11 48 c5 27 7 51 4 55 -9 8 -37
-33 -58 -83 -19 -44 -24 -29 -8 25 6 20 6 36 1 40 -12 7 21 74 59 122 l30 37
0 1430 0 1431 -245 0 c-135 0 -245 -1 -245 -2 0 -2 9 -32 20 -67 35 -112 50
-236 50 -421 0 -241 -21 -420 -100 -860 -127 -708 -158 -929 -166 -1179 -4
-134 -7 -158 -25 -183 -11 -15 -25 -26 -30 -23 -5 4 -9 -4 -9 -17 0 -13 -5
-30 -10 -38 -7 -12 -11 -10 -19 10 -9 23 -10 22 -10 -12 -1 -24 -6 -38 -14
-38 -6 0 -18 -14 -26 -32 -13 -28 -15 -29 -21 -12 -6 16 -16 133 -21 249 -4
76 -18 -70 -18 -190 -1 -131 -12 -187 -25 -125 -3 18 -6 44 -7 59 l0 26 -14
-30 c-8 -16 -26 -57 -40 -89 -60 -137 -178 -281 -260 -317 -22 -10 -97 -28
-165 -40 -171 -30 -475 -33 -595 -6 -128 30 -228 80 -321 159 -56 49 -164 224
-164 268 0 9 -4 20 -9 26 -5 5 -28 79 -50 164 -32 125 -40 172 -40 245 0 165
-21 368 -39 389 -13 14 -17 38 -17 106 0 48 -3 86 -7 84 -10 -6 -21 82 -15
116 5 24 3 28 -9 23 -14 -5 -14 -3 0 26 18 34 12 41 -11 13 -13 -15 -14 -14
-8 11 4 19 2 26 -5 22 -34 -21 26 208 86 326 114 227 279 345 562 404 40 8 86
15 101 15 l28 0 7 134 c3 74 13 153 21 176 11 30 11 39 2 35 -7 -4 -4 0 6 8 9
8 17 19 17 26 0 6 5 11 10 11 6 0 9 4 8 9 -2 5 36 50 85 100 93 98 116 108
128 56 8 -35 63 -172 72 -181 3 -4 25 10 48 30 23 20 45 34 47 31 3 -3 -14
-45 -36 -93 -44 -94 -72 -219 -72 -318 0 -49 2 -54 23 -54 30 -1 182 -60 239
-93 191 -112 316 -337 392 -708 16 -80 25 -107 29 -89 3 14 20 104 37 200 17
96 46 258 65 360 20 102 42 226 50 275 27 163 33 190 34 165 1 -38 -54 -368
-114 -681 -15 -74 -33 -177 -41 -229 -8 -52 -19 -109 -23 -125 -4 -17 -5 -50
-2 -74 5 -40 8 -33 24 75 10 65 48 279 83 474 101 552 124 726 124 940 0 175
-18 314 -52 410 l-23 65 -1085 0 -1085 0 -23 -64 c-75 -213 -71 -556 14 -1031
73 -411 95 -545 92 -568 -2 -16 -13 20 -28 85 -13 62 -26 110 -28 108 -2 -2 4
-48 13 -103 9 -55 15 -115 13 -133 -3 -31 -4 -29 -20 26 l-16 60 5 -60 c6 -66
-1 -70 -16 -9 -8 33 -9 28 -4 -28 6 -75 -7 -91 -30 -35 -14 32 -119 554 -137
682 -6 39 -20 135 -32 215 -16 112 -21 197 -22 370 -1 124 2 252 6 285 4 36 3
49 -2 33 -4 -15 -13 -75 -20 -135 -22 -194 4 -512 75 -898 81 -440 108 -625
94 -646 -10 -17 -25 37 -69 256 -162 800 -189 1170 -115 1525 3 14 -2 7 -11
-15 -28 -70 -46 -195 -53 -365 l-8 -165 -1 158 c-2 181 12 296 54 440 5 16
-10 17 -215 17 l-221 0 0 -1464z m2004 1195 c24 -27 17 -53 -18 -62 -35 -10
-68 5 -60 26 4 8 1 15 -5 15 -15 0 -14 27 2 33 27 12 65 6 81 -12z m-620 -57
c9 -8 16 -17 16 -19 0 -11 -13 -35 -20 -35 -12 0 -69 58 -62 64 11 12 51 6 66
-10z m1543 -71 c-3 -10 -5 -4 -5 12 0 17 2 24 5 18 2 -7 2 -21 0 -30z m-669
18 c22 -13 11 -56 -15 -59 -15 -2 -23 2 -23 12 0 8 -7 19 -16 24 -9 5 -14 14
-10 21 8 13 45 14 64 2z m-577 -62 c42 -42 -26 -63 -73 -21 -14 11 -15 18 -7
29 17 19 56 16 80 -8z m23 -140 c-15 -16 -31 -29 -35 -29 -4 0 -21 12 -38 26
-30 25 -30 26 -14 52 27 42 34 43 76 10 l38 -31 -27 -28z m1213 -121 c-2 -13
-4 -5 -4 17 -1 22 1 32 4 23 2 -10 2 -28 0 -40z m-10 -95 c-3 -10 -5 -2 -5 17
0 19 2 27 5 18 2 -10 2 -26 0 -35z"/>
<path d="M2939 3548 c45 -122 56 -204 56 -405 0 -105 2 -189 5 -186 12 12 17
229 8 337 -11 126 -53 296 -76 304 -9 3 -7 -12 7 -50z"/>
<path d="M2994 2906 c-3 -8 -4 -23 -2 -33 3 -11 6 -6 9 15 6 34 2 42 -7 18z"/>
<path d="M2982 2795 c0 -16 2 -22 5 -12 2 9 2 23 0 30 -3 6 -5 -1 -5 -18z"/>
<path d="M2970 2726 c0 -13 -2 -39 -5 -57 -4 -28 -4 -29 3 -9 16 47 22 90 12
90 -6 0 -10 -11 -10 -24z"/>
<path d="M2953 2593 c-3 -10 -8 -22 -11 -27 -3 -5 0 -6 5 -3 11 7 25 47 17 47
-3 0 -7 -8 -11 -17z"/>
<path d="M2928 2455 c-10 -55 -20 -116 -24 -135 -4 -19 -4 -32 0 -29 10 9 48
217 44 242 -2 12 -11 -23 -20 -78z"/>
<path d="M2886 2234 c-3 -26 -4 -49 -2 -52 3 -2 8 17 11 43 4 25 5 48 3 51 -3
2 -8 -17 -12 -42z"/>
<path d="M2872 2140 c0 -19 2 -27 5 -17 2 9 2 25 0 35 -3 9 -5 1 -5 -18z"/>
<path d="M1143 2055 c-69 -35 -136 -96 -161 -147 -22 -43 -20 -67 3 -48 7 6
17 10 21 9 5 -2 36 25 70 58 51 51 68 61 107 67 49 8 103 -3 179 -34 83 -35
98 -24 47 34 -38 44 -125 86 -176 86 -22 0 -62 -11 -90 -25z"/>
<path d="M2237 2065 c-61 -23 -152 -104 -135 -120 2 -2 39 14 82 36 110 55
169 50 265 -22 59 -45 111 -73 119 -65 10 11 -22 58 -68 96 -95 79 -185 105
-263 75z"/>
<path d="M2852 2025 c0 -16 2 -22 5 -12 2 9 2 23 0 30 -3 6 -5 -1 -5 -18z"/>
<path d="M2836 1935 c-3 -9 -6 -26 -5 -38 1 -14 4 -9 9 13 9 37 7 52 -4 25z"/>
<path d="M2815 1820 c-4 -23 -5 -43 -2 -46 2 -3 7 14 11 37 4 23 5 44 2 46 -2
2 -7 -14 -11 -37z"/>
<path d="M2795 1710 c-4 -28 -5 -54 -2 -56 3 -3 8 18 12 46 4 28 5 54 2 56 -3
3 -8 -18 -12 -46z"/>
<path d="M1020 1710 c0 -5 5 -10 11 -10 5 0 7 5 4 10 -3 6 -8 10 -11 10 -2 0
-4 -4 -4 -10z"/>
<path d="M1051 1704 c-18 -13 -21 -22 -15 -52 11 -63 18 -65 44 -13 14 28 34
55 45 61 14 8 15 9 3 6 -10 -3 -18 -2 -18 2 0 14 -37 11 -59 -4z"/>
<path d="M1175 1711 c-33 -14 67 -25 139 -16 33 4 153 11 266 15 l205 6 -295
2 c-162 0 -304 -3 -315 -7z"/>
<path d="M1823 1713 c9 -2 23 -2 30 0 6 3 -1 5 -18 5 -16 0 -22 -2 -12 -5z"/>
<path d="M1978 1713 c45 -2 119 -2 165 0 45 1 8 3 -83 3 -91 0 -128 -2 -82 -3z"/>
<path d="M2283 1703 c15 -2 39 -2 55 0 15 2 2 4 -28 4 -30 0 -43 -2 -27 -4z"/>
<path d="M2403 1695 c21 -7 42 -16 45 -20 4 -4 7 -40 7 -81 -1 -118 42 -109
-503 -110 -257 0 -476 -4 -488 -8 -11 -3 -97 -10 -191 -15 -94 -4 -175 -11
-181 -15 -20 -12 50 -141 117 -215 17 -19 31 -29 31 -23 0 8 9 10 28 6 35 -9
35 -9 27 -34 -6 -18 -9 -19 -22 -8 -14 11 -15 11 -5 -7 18 -33 79 -88 86 -76
4 5 13 8 21 5 8 -4 18 1 21 10 3 9 10 16 16 16 12 0 38 25 38 37 0 13 133 50
241 67 129 21 316 21 368 0 59 -23 96 -77 95 -136 0 -27 3 -48 6 -48 12 0 63
41 128 104 84 80 175 233 176 292 1 23 4 40 7 38 6 -3 20 71 34 180 7 49 -3
56 -80 55 l-60 0 38 -14z"/>
<path d="M2782 1615 c0 -16 2 -22 5 -12 2 9 2 23 0 30 -3 6 -5 -1 -5 -18z"/>
<path d="M2772 1545 c0 -16 2 -22 5 -12 2 9 2 23 0 30 -3 6 -5 -1 -5 -18z"/>
<path d="M2752 1420 c-6 -47 -11 -112 -11 -145 1 -49 4 -39 15 60 17 143 14
206 -4 85z"/>
<path d="M51 214 c0 -11 3 -14 6 -6 3 7 2 16 -1 19 -3 4 -6 -2 -5 -13z"/>
<path d="M51 174 c0 -11 3 -14 6 -6 3 7 2 16 -1 19 -3 4 -6 -2 -5 -13z"/>
<path d="M52 120 c0 -14 2 -19 5 -12 2 6 2 18 0 25 -3 6 -5 1 -5 -13z"/>
<path d="M40 38 c0 -49 5 -47 13 5 3 20 2 37 -4 37 -5 0 -9 -19 -9 -42z"/>
</g>
</svg>
